<svg xmlns="http://www.w3.org/2000/svg" viewBox="0 0 1920 1080" width="1920" height="1080">
  <rect width="1920" height="1080" fill="#2d5a27"/>
  <defs>
    <g id="zeile2">
      <!-- Häuschen kleiner -->
      <polygon points="19,0 0,14 38,14" fill="none" stroke="rgba(255,255,255,0.9)" stroke-width="1.3"/>
      <rect x="0" y="14" width="38" height="18" fill="none" stroke="rgba(255,255,255,0.9)" stroke-width="1.3"/>
      <rect x="5" y="17" width="10" height="9" fill="none" stroke="rgba(255,255,255,0.7)" stroke-width="0.7"/>
      <rect x="23" y="17" width="10" height="9" fill="none" stroke="rgba(255,255,255,0.7)" stroke-width="0.7"/>
      <line x1="10" y1="17" x2="10" y2="26" stroke="rgba(255,255,255,0.6)" stroke-width="0.5"/>
      <line x1="5" y1="21.5" x2="15" y2="21.5" stroke="rgba(255,255,255,0.6)" stroke-width="0.5"/>
      <line x1="28" y1="17" x2="28" y2="26" stroke="rgba(255,255,255,0.6)" stroke-width="0.5"/>
      <line x1="23" y1="21.5" x2="33" y2="21.5" stroke="rgba(255,255,255,0.6)" stroke-width="0.5"/>
      <rect x="0" y="32" width="38" height="18" fill="rgba(255,255,255,0.08)" stroke="rgba(255,255,255,0.9)" stroke-width="1.3"/>
      <rect x="12" y="36" width="14" height="14" fill="none" stroke="rgba(255,255,255,0.7)" stroke-width="0.7"/>
      <circle cx="24" cy="44" r="1.2" fill="rgba(255,255,255,0.8)"/>
      <rect x="0" y="50" width="38" height="15" fill="none" stroke="rgba(255,255,255,0.9)" stroke-width="1.3"/>
      <line x1="0" y1="54" x2="9" y2="54" stroke="rgba(255,255,255,0.7)" stroke-width="0.7"/>
      <line x1="9" y1="54" x2="9" y2="58" stroke="rgba(255,255,255,0.7)" stroke-width="0.7"/>
      <line x1="9" y1="58" x2="19" y2="58" stroke="rgba(255,255,255,0.7)" stroke-width="0.7"/>
      <line x1="19" y1="58" x2="19" y2="62" stroke="rgba(255,255,255,0.7)" stroke-width="0.7"/>
      <line x1="19" y1="62" x2="28" y2="62" stroke="rgba(255,255,255,0.7)" stroke-width="0.7"/>
      <line x1="28" y1="62" x2="28" y2="65" stroke="rgba(255,255,255,0.7)" stroke-width="0.7"/>
      <!-- Linien -->
      <line x1="48" y1="14" x2="1880" y2="14" stroke="rgba(255,255,255,0.7)" stroke-width="0.7"/>
      <rect x="48" y="32" width="1832" height="18" fill="rgba(255,255,255,0.08)" stroke="none"/>
      <line x1="48" y1="32" x2="1880" y2="32" stroke="rgba(255,255,255,0.9)" stroke-width="0.8"/>
      <line x1="48" y1="50" x2="1880" y2="50" stroke="rgba(255,255,255,0.9)" stroke-width="0.8"/>
      <line x1="48" y1="65" x2="1880" y2="65" stroke="rgba(255,255,255,0.7)" stroke-width="0.7"/>
    </g>
  </defs>
  <use href="#zeile2" transform="translate(20, 22)"/>
  <use href="#zeile2" transform="translate(20, 120)"/>
  <use href="#zeile2" transform="translate(20, 218)"/>
  <use href="#zeile2" transform="translate(20, 316)"/>
  <use href="#zeile2" transform="translate(20, 414)"/>
  <use href="#zeile2" transform="translate(20, 512)"/>
  <use href="#zeile2" transform="translate(20, 610)"/>
  <use href="#zeile2" transform="translate(20, 708)"/>
  <use href="#zeile2" transform="translate(20, 806)"/>
  <use href="#zeile2" transform="translate(20, 904)"/>
</svg>
